<mxfile host="app.diagrams.net" agent="Mozilla/5.0 (Windows NT 10.0; Win64; x64) AppleWebKit/537.36 (KHTML, like Gecko) Chrome/128.0.0.0 Safari/537.36 OPR/114.0.0.0" version="25.0.3">
  <diagram id="C5RBs43oDa-KdzZeNtuy" name="Page-1">
    <mxGraphModel dx="1009" dy="573" grid="1" gridSize="10" guides="1" tooltips="1" connect="1" arrows="1" fold="1" page="1" pageScale="1" pageWidth="827" pageHeight="1169" math="0" shadow="0">
      <root>
        <mxCell id="WIyWlLk6GJQsqaUBKTNV-0" />
        <mxCell id="WIyWlLk6GJQsqaUBKTNV-1" parent="WIyWlLk6GJQsqaUBKTNV-0" />
        <mxCell id="58P6-ZIJkcbQgJ67dYP4-1" style="edgeStyle=orthogonalEdgeStyle;rounded=0;orthogonalLoop=1;jettySize=auto;html=1;entryX=0.5;entryY=0;entryDx=0;entryDy=0;" edge="1" parent="WIyWlLk6GJQsqaUBKTNV-1" source="58P6-ZIJkcbQgJ67dYP4-0" target="58P6-ZIJkcbQgJ67dYP4-2">
          <mxGeometry relative="1" as="geometry">
            <mxPoint x="210" y="160" as="targetPoint" />
          </mxGeometry>
        </mxCell>
        <mxCell id="58P6-ZIJkcbQgJ67dYP4-0" value="Inicio" style="strokeWidth=2;html=1;shape=mxgraph.flowchart.start_2;whiteSpace=wrap;" vertex="1" parent="WIyWlLk6GJQsqaUBKTNV-1">
          <mxGeometry x="160" y="30" width="100" height="70" as="geometry" />
        </mxCell>
        <mxCell id="58P6-ZIJkcbQgJ67dYP4-3" style="edgeStyle=orthogonalEdgeStyle;rounded=0;orthogonalLoop=1;jettySize=auto;html=1;entryX=0.5;entryY=0;entryDx=0;entryDy=0;" edge="1" parent="WIyWlLk6GJQsqaUBKTNV-1" source="58P6-ZIJkcbQgJ67dYP4-2" target="58P6-ZIJkcbQgJ67dYP4-4">
          <mxGeometry relative="1" as="geometry">
            <mxPoint x="210" y="240" as="targetPoint" />
          </mxGeometry>
        </mxCell>
        <mxCell id="58P6-ZIJkcbQgJ67dYP4-2" value="Listo para agregar UID" style="rounded=1;whiteSpace=wrap;html=1;absoluteArcSize=1;arcSize=14;strokeWidth=2;" vertex="1" parent="WIyWlLk6GJQsqaUBKTNV-1">
          <mxGeometry x="160" y="140" width="100" height="50" as="geometry" />
        </mxCell>
        <mxCell id="58P6-ZIJkcbQgJ67dYP4-5" style="edgeStyle=orthogonalEdgeStyle;rounded=0;orthogonalLoop=1;jettySize=auto;html=1;entryX=0.5;entryY=0;entryDx=0;entryDy=0;" edge="1" parent="WIyWlLk6GJQsqaUBKTNV-1" source="58P6-ZIJkcbQgJ67dYP4-4" target="58P6-ZIJkcbQgJ67dYP4-6">
          <mxGeometry relative="1" as="geometry">
            <mxPoint x="210" y="340" as="targetPoint" />
          </mxGeometry>
        </mxCell>
        <mxCell id="58P6-ZIJkcbQgJ67dYP4-4" value="Se pasa una nueva tarjeta" style="rounded=1;whiteSpace=wrap;html=1;absoluteArcSize=1;arcSize=14;strokeWidth=2;" vertex="1" parent="WIyWlLk6GJQsqaUBKTNV-1">
          <mxGeometry x="160" y="230" width="100" height="50" as="geometry" />
        </mxCell>
        <mxCell id="58P6-ZIJkcbQgJ67dYP4-10" style="edgeStyle=orthogonalEdgeStyle;rounded=0;orthogonalLoop=1;jettySize=auto;html=1;entryX=0.5;entryY=0;entryDx=0;entryDy=0;" edge="1" parent="WIyWlLk6GJQsqaUBKTNV-1" source="58P6-ZIJkcbQgJ67dYP4-6" target="58P6-ZIJkcbQgJ67dYP4-11">
          <mxGeometry relative="1" as="geometry">
            <mxPoint x="210" y="430" as="targetPoint" />
          </mxGeometry>
        </mxCell>
        <mxCell id="58P6-ZIJkcbQgJ67dYP4-6" value="Activa GUI" style="rounded=1;whiteSpace=wrap;html=1;absoluteArcSize=1;arcSize=14;strokeWidth=2;" vertex="1" parent="WIyWlLk6GJQsqaUBKTNV-1">
          <mxGeometry x="160" y="320" width="100" height="50" as="geometry" />
        </mxCell>
        <mxCell id="58P6-ZIJkcbQgJ67dYP4-9" value="Se envian&amp;nbsp;&lt;div&gt;a base&amp;nbsp;&lt;/div&gt;&lt;div&gt;de datos&lt;/div&gt;" style="shape=parallelogram;html=1;strokeWidth=2;perimeter=parallelogramPerimeter;whiteSpace=wrap;rounded=1;arcSize=12;size=0.23;" vertex="1" parent="WIyWlLk6GJQsqaUBKTNV-1">
          <mxGeometry x="314" y="405" width="100" height="60" as="geometry" />
        </mxCell>
        <mxCell id="58P6-ZIJkcbQgJ67dYP4-14" style="edgeStyle=orthogonalEdgeStyle;rounded=0;orthogonalLoop=1;jettySize=auto;html=1;entryX=0;entryY=0.5;entryDx=0;entryDy=0;" edge="1" parent="WIyWlLk6GJQsqaUBKTNV-1" source="58P6-ZIJkcbQgJ67dYP4-11" target="58P6-ZIJkcbQgJ67dYP4-9">
          <mxGeometry relative="1" as="geometry" />
        </mxCell>
        <mxCell id="58P6-ZIJkcbQgJ67dYP4-15" style="edgeStyle=orthogonalEdgeStyle;rounded=0;orthogonalLoop=1;jettySize=auto;html=1;" edge="1" parent="WIyWlLk6GJQsqaUBKTNV-1" source="58P6-ZIJkcbQgJ67dYP4-11">
          <mxGeometry relative="1" as="geometry">
            <mxPoint x="210" y="120" as="targetPoint" />
            <Array as="points">
              <mxPoint x="61" y="435" />
            </Array>
          </mxGeometry>
        </mxCell>
        <mxCell id="58P6-ZIJkcbQgJ67dYP4-11" value="Se colocan los datos" style="rounded=1;whiteSpace=wrap;html=1;absoluteArcSize=1;arcSize=14;strokeWidth=2;" vertex="1" parent="WIyWlLk6GJQsqaUBKTNV-1">
          <mxGeometry x="160" y="410" width="100" height="50" as="geometry" />
        </mxCell>
      </root>
    </mxGraphModel>
  </diagram>
</mxfile>
